<?xml version="1.0" encoding="utf-8"?>
<!-- Generator: Adobe Illustrator 25.2.0, SVG Export Plug-In . SVG Version: 6.00 Build 0)  -->
<svg version="1.1" xmlns="http://www.w3.org/2000/svg" xmlns:xlink="http://www.w3.org/1999/xlink" x="0px" y="0px"
	 viewBox="0 0 26.6 35" style="enable-background:new 0 0 26.6 35;" xml:space="preserve">
<style type="text/css">
	.st0{fill:#F2E7DC;}
</style>
<g id="Calque_2">
</g>
<g id="Calque_1">
	<g>
		<g>
			<path class="st0" d="M15.3,16.7c0.9,1.3,2,2.8,3.4,4.6l2.7,3.5c0.5,0.6,0.8,0.9,1,1c0.2,0.1,0.3,0.1,0.5,0.1h0.4v0.9
				c-0.8-0.1-1.5-0.1-2-0.1c-0.5,0-1.1,0-1.7,0.1l-5-6.7c-0.9-1.2-1.9-2.4-3-3.6l0.1-0.5c0.5,0,0.9,0.1,1.2,0.1
				c1.6,0,2.8-0.4,3.7-1.2c0.9-0.8,1.3-1.9,1.3-3.2c0-1.2-0.4-2.1-1.1-2.8c-0.7-0.7-1.8-1-3.2-1c-1,0-2,0.2-3,0.5
				c-0.1,1.5-0.2,3.1-0.2,4.8v6.8c0,3.3,0.1,5.1,0.2,5.5c0.2,0.4,0.7,0.5,1.5,0.5h1.1v0.9c-1.5-0.1-2.8-0.1-3.9-0.1
				c-0.8,0-2.3,0-4.4,0.1v-0.9h1.1c0.8,0,1.3-0.2,1.4-0.5s0.2-2.2,0.2-5.5v-6.7c0-2.9-0.1-4.5-0.3-4.9C7.3,7.9,6.8,7.7,5.8,7.7H5.1
				V6.8c1.7,0.1,3.1,0.1,4,0.1c0.6,0,1.5,0,2.7-0.1c1.3,0,2.3-0.1,2.9-0.1c1.6,0,2.8,0.2,3.7,0.5s1.5,0.8,1.9,1.5
				c0.4,0.6,0.7,1.4,0.7,2.3c0,1.3-0.5,2.5-1.4,3.5S17.1,16.3,15.3,16.7z"/>
		</g>
	</g>
	<g>
		<g>
			<path class="st0" d="M3.7,24.1l0-1.8h0.3l0,1.4l1,0l0-1.2h0.3l0,1.2l1.1,0l0-1.4h0.3l0,1.8L3.7,24.1z"/>
		</g>
		<g>
			<path class="st0" d="M3.7,22.1l0-0.4l1.7-0.5c0.4-0.1,0.7-0.2,1-0.3v0c-0.4-0.1-0.7-0.2-1-0.3L3.7,20v-0.4l3.1,1v0.5L3.7,22.1z"
				/>
		</g>
		<g>
			<path class="st0" d="M3.7,19.2l0-1.8h0.3l0,1.4l1,0l0-1.2h0.3l0,1.2l1.1,0l0-1.4h0.3l0,1.8L3.7,19.2z"/>
		</g>
		<g>
			<path class="st0" d="M3.7,16.7l0-1c0-0.6,0.2-1.1,0.9-1.1c0.6,0,0.9,0.5,0.9,1.1l0,0.6l1.3,0l0,0.4L3.7,16.7z M5.2,15.8
				C5.2,15.3,5,15,4.6,15c-0.4,0-0.6,0.3-0.6,0.8l0,0.5l1.2,0L5.2,15.8z M5.4,15.8l-0.2-0.3l1.6-0.9l0,0.4L5.4,15.8z"/>
		</g>
		<g>
			<path class="st0" d="M6.4,14.3l-0.3-0.2c0.2-0.2,0.4-0.5,0.4-0.9c0-0.4-0.2-0.7-0.5-0.7c-0.3,0-0.4,0.2-0.5,0.5l-0.2,0.4
				c-0.1,0.3-0.3,0.6-0.8,0.6c-0.5,0-0.8-0.4-0.8-1c0-0.4,0.2-0.7,0.4-0.9l0.3,0.2C4.1,12.6,4,12.9,4,13.2c0,0.3,0.2,0.6,0.5,0.6
				c0.3,0,0.4-0.3,0.5-0.5l0.2-0.4c0.2-0.4,0.4-0.6,0.8-0.6c0.5,0,0.9,0.4,0.9,1.1C6.9,13.6,6.7,14,6.4,14.3z"/>
		</g>
		<g>
			<path class="st0" d="M3.7,11.5l0-1.8h0.3l0,1.4l1,0l0-1.2h0.3l0,1.2l1.1,0l0-1.4h0.3l0,1.8L3.7,11.5z"/>
		</g>
	</g>
	<g>
		<path class="st0" d="M26.6,35H0V0h26.6V35z M1,34h24.6V1H1V34z"/>
	</g>
</g>
</svg>
